<svg fill="none" height="208" width="208" xmlns="http://www.w3.org/2000/svg"><circle cx="104" cy="104" fill="#eee" r="104"/><path clip-rule="evenodd" d="m105.118 44.07 28.925 3.67v8.14H74.198v-8.14l28.925-3.734V24.96h21.943V36.93h-19.948zM64.224 55.88v103.729H58.24v7.98h91.761v-7.98h-5.984V55.879zm53.86 103.729v-27.927H90.157v27.927zm-41.89-49.87h13.963v13.964H76.193zm55.854 13.964v-13.964h-13.964v13.964zM76.193 87.796h13.964v13.964H76.193zm55.855 13.964V87.796h-13.964v13.964zM76.193 65.853h13.964v13.964H76.193zm55.855 13.964V65.854h-13.964v13.963z" fill="#fff" fill-rule="evenodd"/></svg>