<svg width="25" height="24" viewBox="0 0 25 24" fill="none" xmlns="http://www.w3.org/2000/svg">
<path d="M14.0333 6H11.6333V10.8H6.83325V13.2H11.6333V18H14.0333V13.2H18.8333V10.8H14.0333V6ZM12.8333 0C6.20925 0 0.833252 5.376 0.833252 12C0.833252 18.624 6.20925 24 12.8333 24C19.4573 24 24.8333 18.624 24.8333 12C24.8333 5.376 19.4573 0 12.8333 0ZM12.8333 21.6C7.54125 21.6 3.23325 17.292 3.23325 12C3.23325 6.708 7.54125 2.4 12.8333 2.4C18.1253 2.4 22.4333 6.708 22.4333 12C22.4333 17.292 18.1253 21.6 12.8333 21.6Z" fill="#085C77"/>
</svg>
