<svg width="23" height="29" viewBox="0 0 23 29" fill="none" xmlns="http://www.w3.org/2000/svg">
<path d="M2.83301 28.3335C2.27745 28.3335 1.80523 28.1391 1.41634 27.7502C1.02745 27.3613 0.833008 26.8891 0.833008 26.3335V11.8668C0.833008 11.3113 1.02745 10.8391 1.41634 10.4502C1.80523 10.0613 2.27745 9.86683 2.83301 9.86683H5.16634V6.66683C5.16634 4.91127 5.78301 3.41683 7.01634 2.1835C8.24967 0.950163 9.74412 0.333496 11.4997 0.333496C13.2552 0.333496 14.7497 0.950163 15.983 2.1835C17.2163 3.41683 17.833 4.91127 17.833 6.66683V9.86683H20.1663C20.7219 9.86683 21.1941 10.0613 21.583 10.4502C21.9719 10.8391 22.1663 11.3113 22.1663 11.8668V26.3335C22.1663 26.8891 21.9719 27.3613 21.583 27.7502C21.1941 28.1391 20.7219 28.3335 20.1663 28.3335H2.83301ZM2.83301 26.3335H20.1663V11.8668H2.83301V26.3335ZM11.4997 21.6668C12.2108 21.6668 12.8163 21.4224 13.3163 20.9335C13.8163 20.4446 14.0663 19.8557 14.0663 19.1668C14.0663 18.5002 13.8163 17.8946 13.3163 17.3502C12.8163 16.8057 12.2108 16.5335 11.4997 16.5335C10.7886 16.5335 10.183 16.8057 9.68301 17.3502C9.18301 17.8946 8.93301 18.5002 8.93301 19.1668C8.93301 19.8557 9.18301 20.4446 9.68301 20.9335C10.183 21.4224 10.7886 21.6668 11.4997 21.6668ZM7.16634 9.86683H15.833V6.66683C15.833 5.46683 15.4108 4.44461 14.5663 3.60016C13.7219 2.75572 12.6997 2.3335 11.4997 2.3335C10.2997 2.3335 9.27745 2.75572 8.43301 3.60016C7.58856 4.44461 7.16634 5.46683 7.16634 6.66683V9.86683ZM2.83301 26.3335V11.8668V26.3335Z" fill="#D32F2F"/>
</svg>
